<?xml version="1.0" encoding="utf-8"?>
<!-- Generator: Adobe Illustrator 22.1.0, SVG Export Plug-In . SVG Version: 6.00 Build 0)  -->
<svg version="1.1" id="レイヤー_1" xmlns="http://www.w3.org/2000/svg" xmlns:xlink="http://www.w3.org/1999/xlink" x="0px"
	 y="0px" viewBox="0 0 300 63" enable-background="new 0 0 300 63" xml:space="preserve">
<g>
	<g>
		<path fill="#231815" d="M12.576,55.521c-0.9072,0.0622-1.5085,0.6013-1.9906,0.6013c-1.2026,0-3.5509-5.5985-3.5509-6.0754
			c0-0.1814,0.1244-0.2436,0.3058-0.2436c0.1192,0,0.3007,0.0622,0.4769,0.0622c1.0834,0.1192,2.5297,0.1192,4.2144,0.1192
			c4.2144,0,9.9322-0.2385,15.5255-0.6013c0.0622-1.5033,0.1244-3.8516,0.1244-6.2569c-2.7111,0-5.4793,0.057-7.164,0.057
			l0.1192,2.3483c0,0.4821-0.3007,0.6013-2.8874,0.6013c-2.4053,0-2.7682-0.2385-2.7682-0.5443
			c0.3007-2.3431,0.6013-5.837,0.6013-8.3615c0-1.9854-0.0622-3.3125-0.1814-4.6343c-3.9708,2.3483-6.9204,3.3695-7.0396,3.3695
			c-0.1192,0-0.2436-0.0622-0.3629-0.1814C6.9775,34.397,4.51,33.3758,3.3074,32.7122c-0.4251-0.2385-0.6013-0.3629-0.6013-0.4821
			s0.3007-0.1814,0.6013-0.3007c10.2277-2.8874,16.0076-8.1852,19.0764-12.5189c-2.6489,0.0622-5.7177,0.1814-10.4143,0.4251
			c-0.3577,0-0.5391-0.1244-0.5391-0.4821c0-0.4199-0.0622-1.2649-0.0622-2.1098c0-2.5867,0.0622-2.6437,0.6013-2.6437
			c6.1998,0.3577,9.5693,0.4199,12.8196,0.4821c0.5443-1.4463,1.0834-3.131,1.3271-4.3337c-4.9972,0-9.2116,0.057-18.4751,0.4821
			c-0.4251,0-0.6635-0.0622-0.7257-0.4251c0-0.4199-0.057-1.3219-0.057-2.2239c0-2.7111,0.057-2.7111,0.7828-2.7111
			c9.6885,0.4251,13.7216,0.4821,19.0142,0.4821c13.9652,0,18.1174-0.057,27.0232-0.4821c0.4821,0,0.6583,0,0.6583,2.7682
			c0,0.902-0.057,1.7469-0.1192,2.229c0,0.2385-0.1814,0.4199-0.5391,0.4199c-9.6885-0.4199-14.805-0.5391-20.4605-0.5391
			c-0.2436,0.3577-0.7257,0.7828-1.0264,1.1404c-0.8398,0.9642-1.5655,3.0688-1.6225,3.1932
			c10.4091,0,17.4487-0.4251,18.7136-0.4821c0.3629,0,0.3629,0.1762,0.4251,0.4821c0.057,0.4199,0.057,1.3219,0.057,2.2239
			c0,0.845,0,1.7469-0.057,2.1668c0,0.2385-0.1814,0.3629-0.4251,0.3629c-4.6913-0.2436-8.0038-0.3629-10.9534-0.4251
			c3.7945,4.2766,9.813,8.3097,19.5585,10.1706c0.3629,0.0622,0.6065,0.1244,0.6065,0.3007c0,0.1244-0.1814,0.3007-0.6065,0.5443
			c-1.2597,0.7205-4.0278,1.9854-5.4119,3.4887c-0.1814,0.2436-0.4251,0.3007-0.6635,0.3007c-0.9642,0-5.1164-2.1668-6.6197-3.0688
			c-0.1192,1.5655-0.1814,3.0688-0.1814,5.6607c0,3.0066,0.2385,4.09,0.4821,6.739v0.057c0,0.3629-0.3629,0.6635-0.6635,0.6635
			h-3.2503c5.837,2.6489,12.3375,6.9826,12.3375,7.5217c0,1.0264-2.8874,4.5773-3.5509,4.5773
			c-0.1814,0-0.3577-0.1814-0.6583-0.4251c-1.4463-1.3219-2.9496-2.5867-4.4581-3.6701L12.576,55.521z M28.5214,19.3535
			c-1.804,3.0688-4.5721,6.8012-8.968,10.2899c2.5297,0.0622,5.3549,0.1814,8.066,0.1814
			c-0.1192-1.8662-0.3007-3.7323-0.6635-5.5985c0-0.1192-0.057-0.1814-0.057-0.2385c0-0.0622,0-0.1814,0.4769-0.1814
			c6.8634,0.3629,6.9256,1.3841,6.9256,1.5655c0,0.4821-0.4821,1.0212-0.9642,1.5655c-0.3629,0.4769-0.4199,0.7828-0.5443,2.0424
			c0,0.2436-0.057,0.5443-0.057,0.845c3.5509,0,6.8012-0.1192,9.87-0.3007c-4.878-3.3125-8.3667-7.164-10.295-10.1706H28.5214z
			 M27.6817,36.8645c0-0.902,0.057-1.8662,0.057-2.8874c-3.7894,0-7.2833,0.057-7.2833,0.057s-0.057,0.4251-0.057,3.3125v1.5655
			c1.6847,0.057,4.5099,0.1192,7.2833,0.1192V36.8645z M40.1384,37.1081c0-2.9496-0.0622-3.074-0.0622-3.074
			s-3.4887-0.057-7.4025-0.057v5.0542c3.0688,0,6.0806-0.0622,7.4647-0.1192V37.1081z M39.8947,43.2457
			c-1.4411-0.0622-4.2715-0.1192-7.2211-0.1192l0.1192,5.894c2.4105-0.1814,4.7536-0.3007,6.8012-0.4821
			c-2.7059-1.6225-2.7059-1.6847-2.7059-1.8662c0-0.3577,2.2861-3.1258,3.0066-3.1258V43.2457z"/>
		<path fill="#231815" d="M79.2606,33.1943c-6.739,6.0754-9.9322,7.5217-10.3521,7.5217c-0.1192,0-0.1814-0.057-0.3007-0.1192
			c-1.6847-1.3271-4.09-1.804-5.6555-2.229c-0.3629-0.1192-0.5443-0.2385-0.5443-0.4199c0-0.1192,0.1192-0.2385,0.3629-0.3629
			c8.968-3.8516,18.4129-12.156,23.0472-19.0764c-4.3337,0.0622-10.1706,0.1814-19.0764,0.5443
			c-0.7206,0-0.7828-0.1814-0.7828-2.7682c0-2.7682,0-3.131,0.7828-3.131c10.5335,0.6013,16.7904,0.6635,21.1862,0.6635v-1.6277
			c0-2.9496-0.1244-5.894-0.4821-8.3615V3.6466c0-0.3007,0.057-0.3629,0.3007-0.3629h0.1814
			c6.739,0.7205,7.4025,0.902,7.4025,1.5655c0,0.4821-0.5443,1.1456-0.9072,1.8662c-0.6013,1.0834-0.7206,3.7894-0.902,7.1018
			c4.7536,0,10.772-0.1192,21.067-0.6635c0.3007,0,0.5391,0.3007,0.6013,0.6635c0.057,0.4821,0.057,1.6847,0.057,2.8252
			c0,2.0476-0.057,2.4105-0.6583,2.4105c-9.5693-0.4251-15.7691-0.4821-20.3413-0.5443c0.5391,2.8926,1.5033,6.8012,3.2503,11.0156
			c4.3907-2.7682,8.9058-6.1376,10.4713-8.3045c0.2384-0.3007,0.4199-0.4251,0.6013-0.4251c0.6013,0,5.0542,4.935,5.0542,5.8422
			c0,0.5391-0.6013,0.7206-1.5033,0.902c-0.9072,0.1814-1.6847,0.2385-2.4675,0.7206c-1.6847,1.0212-6.0806,3.3695-10.1136,5.4741
			c3.4939,6.3813,9.0872,12.8196,17.993,16.7904c0.3007,0.1244,0.5443,0.2436,0.5443,0.3629c0,0.1192-0.1814,0.2436-0.6635,0.4821
			c-1.4411,0.7206-4.033,1.7469-5.6555,3.0688c-0.1814,0.1192-0.3007,0.1814-0.4821,0.1814c-0.902,0-16.7282-9.8078-21.124-33.3423
			c-1.2649,1.7469-3.2503,4.0952-5.5985,6.6197l0.6065,0.1244c0.6583,0.1762,1.0212,0.4199,1.0212,0.8398
			c0,0.3007-0.2385,0.6635-0.7828,1.0834c-0.2385,0.1814-0.4199,0.5443-0.4199,1.3219l0.1814,15.5877
			c5.5363-1.4411,10.5283-2.8874,12.2753-3.3695c0.1814-0.057,0.3629-0.057,0.4821-0.057s0.1192,0,0.1192,0.1192
			s0,0.2385-0.0622,0.4199c-0.2385,0.9642-0.6013,2.706-0.6013,4.09c0,0.4251-0.1192,0.7828-0.902,1.0264
			c-9.2687,3.0688-20.3983,5.837-21.7824,6.4383c-0.9642,0.4199-1.5655,1.2649-2.229,1.2649c-1.3219,0-3.8516-5.5363-3.8516-6.262
			c0-0.3577,0.4199-0.3007,0.902-0.3577c2.4105-0.2436,5.8992-0.9642,9.6885-1.8662c0.0622-2.6489,0.0622-6.5627,0.0622-10.4143
			V33.1943z"/>
		<path fill="#231815" d="M167.5513,16.7046c-0.0622,0.2385-0.1814,0.4821-0.3629,0.6635
			c-0.4199,0.4821-0.4821,0.1192-0.5391,2.7682v4.4529c3.7323-0.0622,7.4025-0.1814,10.2277-0.3629
			c0.5443,0,0.7828,0.1814,0.7828,2.7682c0,2.4105,0,2.7111-0.7828,2.7111c-2.7059-0.1814-6.4383-0.3629-10.2899-0.4251
			c0,2.9496,0.0622,6.0806,0.0622,8.5481c3.0066-0.0622,5.9562-0.1814,8.4237-0.3629c0.5443,0,0.7828,0.3007,0.7828,2.7111
			c0,2.4675-0.1814,2.6437-0.7828,2.6437c-7.2211-0.4769-19.74-0.5391-24.2499-0.5391c-4.1574,0-16.1891,0.0622-23.4723,0.5391
			c-0.7828,0-0.902-0.057-0.902-2.5867c0-2.7682,0.057-2.7682,0.902-2.7682c2.1046,0.1192,4.5151,0.2436,7.0396,0.3007
			c0.0622-2.4053,0.0622-5.5933,0.0622-8.4237c-3.5509,0.0622-6.9204,0.1814-9.5071,0.3629c-0.7828,0-0.9072-0.0622-0.9072-2.6489
			c0-2.8304,0.1244-2.8304,0.9072-2.8304c2.5867,0.1814,6.0132,0.3007,9.5641,0.3629v-1.7469l-0.1763-4.935
			c-2.1668,2.7111-4.3959,5.1164-4.935,5.1164c-0.1244,0-0.3007-0.0622-0.4251-0.1814c-1.3219-1.0834-2.5245-1.3841-4.3337-1.9854
			c-0.3577-0.1192-0.5391-0.2385-0.5391-0.3629c0-0.1192,0.0622-0.1763,0.2385-0.3007
			c6.1998-4.2093,11.9176-13.5971,12.3997-16.3083c0.0622-0.2385,0.1814-0.3007,0.3629-0.3007c1.0212,0,5.9562,2.3483,5.9562,3.3125
			c0,0.3007-0.3007,0.6583-1.0834,1.0212c-0.845,0.4199-1.0834,0.3007-1.7469,1.4463c-0.4199,0.7828-1.0212,1.6847-1.6225,2.6437
			h4.4529c18.5373,0,24.4935-0.2385,27.9252-0.4769c0.6583,0,0.6583,0.6013,0.6583,3.0688c0,0.7828,0,1.5033-0.057,1.8662
			c-0.0622,0.2385-0.3629,0.4199-0.6013,0.4199L167.5513,16.7046z M130.4818,57.1435c-1.2078-1.0212-3.4939-1.861-4.878-2.2861
			c-0.3007-0.1192-0.4821-0.2385-0.4821-0.3577c0-0.0622,0.0622-0.1814,0.3007-0.3007c4.878-2.9496,7.9468-6.8012,8.7295-10.3521
			c0.057-0.1814,0.1192-0.2436,0.2384-0.2436c0.5443,0,5.78,2.2912,5.78,3.1932c0,0.3577-0.5443,0.6583-1.2078,1.2026
			c-0.6583,0.5391-1.0782,1.2026-1.5033,1.9854c-2.9496,5.1734-5.7177,7.4025-6.3761,7.4025
			C130.8395,57.3872,130.6581,57.2679,130.4818,57.1435z M143.7213,22.8422c-0.0622-2.6489-0.1244-4.7536-0.3007-6.4383
			l-3.131,0.0622c0,0.2385-0.2436,0.5391-0.4199,0.7206c-0.4251,0.4821-0.4821,0.1814-0.5443,2.7682v4.6913
			c1.5033,0,3.0118,0.0622,4.3959,0.0622V22.8422z M143.7213,29.2235h-4.3959v8.6621c1.5033,0,3.0118,0.0622,4.3959,0.0622V29.2235z
			 M143.12,54.9197c0-3.131-0.5443-6.739-1.3271-8.968v-0.1192c0-0.3629,0.0622-0.9642,4.3959-0.9642
			c0.3577,0,0.5391,0,0.7206,0.4821c2.2861,5.5363,2.3483,9.8078,2.3483,9.8078c0,0.3629-0.1244,0.5443-0.6635,0.7257
			c-0.902,0.2385-3.131,0.6013-4.4529,0.6013c-0.7827,0-1.0212-0.1192-1.0212-0.6635V54.9197z M152.7463,22.8422
			c-0.0622-2.6489-0.1192-4.7536-0.3007-6.4383h-3.131c0,0.2385-0.1814,0.6013-0.3577,0.7828
			c-0.4251,0.4821-0.4821,0.1814-0.5443,2.7682v4.8158h4.3337V22.8422z M152.7463,29.1613h-4.3337v8.8488h4.3337V29.1613z
			 M156.178,56.0653c-0.1814,0-0.3007-0.0622-0.3629-0.3058c-0.9642-3.2451-2.7682-6.796-4.3337-8.8436
			c-0.057-0.0622-0.1192-0.2436-0.1192-0.3629c0-0.8398,3.188-1.9232,4.2144-1.9232c1.0212,0,5.894,7.8224,5.894,8.8436
			C161.4707,54.2561,157.0178,56.0653,156.178,56.0653z M161.7143,29.2235c-1.5033,0-3.0118-0.0622-4.3337-0.0622
			c0,3.0688,0.0622,6.3191,0.0622,8.7866c1.3219,0,2.8252-0.0622,4.2715-0.0622V29.2235z M161.7143,24.7084
			c0-0.845-0.0622-1.4463-0.0622-1.6225c-0.057-2.7111-0.057-4.8158-0.3007-6.5627c-1.0212,0-2.0476-0.057-3.0066-0.057
			c0,0.2385-0.1814,0.5391-0.3629,0.7206c-0.4199,0.4821-0.4821,0.1814-0.5391,2.7682v4.7536H161.7143z M170.8015,56.6666
			c-0.1192,0-0.2436-0.0622-0.3007-0.2436c-2.4105-4.033-6.2621-7.5839-8.2475-9.2064c-0.1192-0.1192-0.1814-0.3007-0.1814-0.4821
			c0-0.7828,3.3125-2.9496,3.6753-2.9496c0.902,0,9.8078,7.4025,9.8078,8.8488C175.5551,53.1727,171.7035,56.6666,170.8015,56.6666z
			"/>
		<path fill="#231815" d="M187.5971,51.7887c-0.7206-0.3007-1.9854-0.3577-3.0066-0.3577c-1.4463,0-1.5655-0.1244-1.5655-0.2436
			c0-0.057,0-0.1192,0.057-0.2385c2.1098-4.1522,3.5509-9.7508,3.6131-13.6645c0-0.6583,0.057-0.7205,0.2384-0.7205
			c0.4821,0,4.878,0.845,4.878,1.5033c0,0.3007-0.3629,0.6635-0.6635,1.2649c-0.3629,0.6013-0.3629,0.902-0.4821,1.6847
			c-0.3629,2.1668-1.3841,7.4647-2.4675,10.3521c-0.0622,0.1814-0.1814,0.4199-0.4199,0.4199H187.5971z M204.206,54.8004
			c-0.5391,0.6013-0.7828,1.3841-1.2648,1.3841c-0.6583,0-4.3285-4.0952-4.3285-4.6965c0-0.1814,0.1763-0.2385,0.4199-0.3577
			c2.8252-1.3841,5.4741-3.6131,7.5217-5.5415c0.1814-4.09,0.3007-6.6768,0.3007-9.2065v-1.1404c0,0-2.0476,0-3.3695,0.3577h-0.1192
			c-0.6013,0-0.6635,0-0.6635-3.4887c0,0-1.804,0.902-1.8662,0.902c-0.1192,0-0.3629-0.057-0.7828-1.3841
			c-0.4821,0.0622-1.5655,0.2436-2.7682,0.4821c0.1192,0.0622,0.1814,0.1814,0.1814,0.2385c0,0.2436-0.1814,0.4821-0.4821,0.7257
			c-0.0622,0.057-0.3629,0.3007-0.3629,1.0212c0.0622,8.0038,0.0622,11.6739,0.6635,21.6061c0,0.6635,0,0.6635-2.8874,0.6635
			c-2.5867,0-2.6489-0.3007-2.6489-0.7828c0.6635-10.3521,0.6013-13.846,0.6635-22.6273c-2.4105,0.4199-4.5773,0.8398-4.9972,0.959
			c-0.6635,0.1814-1.0834,0.7257-1.5033,0.7257c-0.7828,0-1.9854-4.935-1.9854-5.5363c0-0.1244,0.057-0.3058,0.6013-0.3058h1.0834
			c0.902,0,1.9232,0,3.0066-0.057c0.7828-1.2648,1.6847-2.8304,2.5919-4.6343c-2.0476-2.4675-5.5415-5.1734-6.6819-6.0184
			c-0.1814-0.1192-0.3007-0.2385-0.3007-0.3629c0-0.057,1.9854-3.1258,2.4675-3.1258c0,0,0.1192,0,1.2026,0.7828
			c1.6847-3.5509,3.3695-8.2474,3.7894-11.3785c0.0622-0.3577,0-0.6583,0.3629-0.6583c0.9642,0,5.2979,1.8662,5.2979,2.9496
			c0,0.4199-0.4821,0.8398-1.0264,1.3841c-0.4821,0.4769-0.8398,1.2026-1.0212,1.6847c-0.7827,1.9232-2.7059,5.894-4.033,8.4859
			l2.1668,1.861c1.7469-3.7272,3.188-7.3403,3.4887-9.025c0.0622-0.3007,0-0.6013,0.3007-0.6013h0.1244
			c0,0,4.992,1.6847,4.992,3.131c0,0.4199-0.4821,0.7828-1.0834,1.2597c-0.5391,0.4251-0.6583,0.845-1.0212,1.5085
			c-1.2027,2.3431-4.5721,8.4237-6.9204,12.4567l4.992-0.5443c-0.6583-1.2597-1.2597-2.2861-1.6847-2.8252
			c-0.1192-0.1814-0.1762-0.3007-0.1762-0.4251c0-0.1192,0.057-0.1762,0.2384-0.3007c0.1814-0.1192,2.7059-1.4411,3.0688-1.4411
			c0.2436,0,3.3125,4.033,4.6343,7.4595v0.0622c1.1456,0.1192,2.5297,0.2385,3.8516,0.2385c1.0834,0,2.229-0.057,3.188-0.2385
			h0.1814c0.3629,0,0.4821,0.2385,0.4821,0.6635v0.1763c-0.3007,2.2912-0.6013,4.3959-0.6013,6.6819
			c0,1.9284-0.0622,4.5151-0.0622,6.9826c1.6847,5.2927,6.9826,6.1998,13.3017,6.2569c2.9496,0,10.8342-0.8398,14.3851-2.2239
			c0.1763-0.0622,0.2384-0.0622,0.3577-0.0622c0.0622,0,0.1192,0.0622,0.1192,0.1192c0,0.1192-0.1192,0.3629-0.1763,0.4821
			c-0.3629,0.845-2.0476,3.4317-2.3483,5.2356c-0.0622,0.2436-0.3629,0.6013-0.7206,0.6635
			c-2.3483,0.5391-9.9944,0.8398-12.4619,0.8398c-7.5787-0.057-12.3323-2.3431-14.6806-6.5575L204.206,54.8004z M204.3252,45.8947
			c-0.902,0.2385-2.4053,0.7206-3.4887,1.3841c-0.0622,0.057-0.1814,0.057-0.2384,0.057c-0.845,0-3.2503-9.1442-3.2503-9.7508
			c0-0.3577,3.0688-1.2597,3.3695-1.2597c0.1192,0,0.2385,0.057,0.3007,0.3007c0.4821,1.804,1.804,5.5933,3.6079,8.6622
			c0.0622,0.0622,0.1244,0.1814,0.1244,0.2436C204.7503,45.7132,204.6259,45.8325,204.3252,45.8947z M206.9171,16.404
			c-2.5297-3.0688-4.8158-4.6343-5.1786-4.935c-0.2384-0.1192-0.4199-0.2385-0.4199-0.4199c0-0.4821,2.9496-3.131,3.188-3.3125
			c0.0622-0.057,0.1814-0.1192,0.3007-0.1192c0.4821,0,6.2621,4.09,6.2621,5.1734c0,0.6635-2.7682,4.033-3.5509,4.033
			C207.337,16.8238,207.1556,16.7046,206.9171,16.404z M222.8625,9.3643c1.9284,0,5.6555-0.1244,5.6555-0.1244
			c0.9642,0,0.9642-0.7205,1.4463-0.7205c0.6013,0,3.6131,1.9284,3.6131,2.5297c0,0.4199-0.6065,0.7828-0.7827,0.959
			c-0.9642,0.7828-1.0264,0.845-1.6847,1.6899c-1.2078,1.5603-2.8304,3.4887-4.7587,5.3549
			c3.131,1.804,7.2262,3.3695,12.7003,3.7323c0.1814,0,0.3629,0.057,0.3629,0.2385c0,0.0622,0,0.1814-0.1244,0.3007
			c-0.5391,0.845-2.4053,2.229-3.188,3.9138c-0.1192,0.2385-0.3629,0.3007-0.5391,0.3007c-0.0622,0-6.1998-0.5443-12.5811-5.4793
			c-6.3191,5.3549-11.0104,6.8012-11.7362,6.8012c-0.1192,0-0.2384-0.0622-0.3577-0.1814c-0.902-1.3219-2.6489-2.2239-3.4317-2.7059
			c-0.3007-0.1814-0.4199-0.3629-0.4199-0.4821c0-0.1192,0.1814-0.1814,0.4199-0.2385c4.6343-0.845,8.968-3.2502,12.4567-5.8992
			c-1.0834-1.0834-1.9854-2.1668-2.6489-3.0688c-1.6225,1.7418-3.5509,3.4265-5.7126,4.7536
			c-0.0622,0.057-0.1814,0.057-0.2436,0.057c-0.1814,0-0.3629-0.057-0.4821-0.1763c-1.0212-0.902-2.6489-1.5085-3.5509-1.9854
			c-0.1814-0.1244-0.3007-0.1814-0.3007-0.3058c0-0.057,0.0622-0.1762,0.2436-0.2385c6.8582-3.0066,12.2131-11.3733,12.9388-13.3587
			c0.057-0.1192,0.1192-0.1814,0.2384-0.1814c0.0622,0,0.1192,0.0622,0.1814,0.0622c0.2384,0.1192,3.0066,1.1404,4.1522,1.9854
			c0.2385,0.1762,0.3007,0.3007,0.3007,0.4199c0,0.3007-0.3629,0.4821-0.845,0.6635c-0.5391,0.1762-0.8398,0.5391-1.2026,1.0212
			l-0.2385,0.3629H222.8625z M225.4493,34.8169c1.8662-0.057,3.976-0.1192,6.5005-0.3577c0.2436,0,0.3629,0.1814,0.3629,0.4199
			c0.057,0.3007,0.057,0.9642,0.057,1.6847c0,0.7205,0,1.3841-0.057,1.7469c0,0.1814-0.1814,0.2385-0.3629,0.2385
			c-2.7059-0.2385-4.5151-0.3007-6.4383-0.3577c0,0.959,0.0622,1.9854,0.0622,3.0066c2.7059-0.0622,5.5363-0.1192,9.2635-0.4199
			c0.3007,0,0.4821,0.1814,0.4821,0.4199c0.0622,0.3007,0.0622,1.0212,0.0622,1.804c0,0.7257,0,1.5085-0.0622,1.8662
			c0,0.1814-0.3007,0.2436-0.4821,0.2436c-3.9086-0.2436-6.3191-0.4251-9.1442-0.4251c0.057,1.7469,0.1192,3.3695,0.2384,4.878
			c0,0.2385-0.1192,0.4199-0.4199,0.4199c-0.6013,0.0622-1.3841,0.0622-2.1668,0.0622c-2.1668,0-2.6489-0.0622-2.6489-0.6065
			c0.1192-1.6225,0.2437-3.188,0.3007-4.6913c-2.2861,0.0622-4.5721,0.1192-7.5839,0.3629c-0.2384,0-0.4769,0-0.5391-0.3007
			c0-0.3629-0.0622-1.0834-0.0622-1.8092c0-2.2239,0.1244-2.2239,0.6013-2.2239c2.9496,0.2385,5.3601,0.3577,7.7031,0.4199
			c0-1.0212,0.0622-1.9854,0.0622-3.0066c-1.804,0.057-3.7894,0.1763-6.0806,0.3577c-0.1763,0-0.4199-0.057-0.4199-0.3007
			c0-0.3007-0.057-1.0212-0.057-1.6847c0-0.7206,0.057-1.3841,0.057-1.6847c0-0.3629,0.1192-0.4199,0.4199-0.4199
			c2.229,0.2385,4.2144,0.3007,6.0806,0.3577c0-0.8398-0.0622-1.6847-0.0622-2.6437c-2.1046,0.057-4.2093,0.1763-6.8582,0.3577
			c-0.2384,0-0.4821-0.057-0.4821-0.3007c0-0.3007-0.0622-1.0212-0.0622-1.6847c0-2.0476,0.1244-2.1046,0.5443-2.1046
			c2.4675,0.2385,4.5721,0.3007,6.6819,0.3577c-0.1244-1.2026-0.2437-2.4053-0.4821-3.7272v-0.2436c0-0.057,0-0.1814,0.3577-0.1814
			c1.0264,0.0622,3.5509,0.5443,5.2979,1.0834c0.3007,0.1244,0.4199,0.3007,0.4199,0.5443c0,0.3007-0.2384,0.7205-0.4821,1.2026
			c-0.2385,0.4199-0.3577,0.845-0.4199,1.3219c2.1046-0.057,4.3337-0.1192,7.164-0.3577c0.2384,0,0.4199,0.1814,0.4199,0.4199
			c0.0622,0.3007,0.0622,0.9642,0.0622,1.6847c0,0.7206,0,1.3841-0.0622,1.7469c0,0.1814-0.2436,0.2385-0.4199,0.2385
			c-3.0688-0.2385-5.1164-0.3007-7.3455-0.3577V34.8169z M222.6811,12.6146c-0.6013,0-1.5033,0.057-2.2861,0.057l-0.6013,0.7205
			c0.7828,0.9642,1.804,2.1668,3.188,3.3125c1.5655-1.5033,2.8304-2.9496,3.6701-4.09H222.6811z"/>
		<path fill="#231815" d="M281.9062,52.9343c-0.4821-0.0622-2.1668-0.2436-3.7894-0.2436c-0.9072,0-1.8091,0.0622-2.4675,0.1814
			c-0.1244,0-0.2436,0.0622-0.3629,0.0622c-0.4821,0-0.7206-0.3007-1.1456-1.0264c-3.3695-5.894-10.1084-16.3083-10.829-17.3295
			c-3.131,4.5151-7.7654,12.0368-11.0156,17.5731c-0.4199,0.6635-0.8398,0.7828-1.2027,0.7828h-0.2384
			c-0.7257-0.0622-1.9906-0.1814-3.4317-0.1814c-0.902,0-1.804,0.0622-2.6489,0.1814h-0.3629c-0.3577,0-0.6583-0.1192-0.6583-0.4199
			c0-0.1814,0.1192-0.4251,0.3577-0.7257c3.3125-4.1522,13.0632-17.7546,15.9506-22.026
			c-0.845-1.3219-8.5481-12.6952-13.4209-18.5321c-0.2437-0.3058-0.3629-0.5443-0.3629-0.7828c0-0.2436,0.1814-0.4251,0.5443-0.4251
			h0.1192c0.8398,0.0622,1.9854,0.1244,3.131,0.1244c1.2027,0,2.3431-0.0622,3.188-0.1244h0.2384
			c0.5443,0,0.845,0.1814,1.2078,0.7828c2.5867,4.5773,5.1734,8.7295,8.18,13.2395l0.7828,1.2078l0.6013-0.9072
			c3.3747-5.0542,6.1428-9.6885,8.009-13.2395c0.3577-0.6583,0.6013-1.0834,1.0782-1.0834h0.1244
			c0.6583,0.0622,1.804,0.1244,3.0066,0.1244c1.2027,0,2.5297-0.0622,3.4939-0.1244h0.1762c0.4251,0,0.7828,0.1244,0.7828,0.4251
			c0,0.1762-0.057,0.3577-0.3007,0.6583c-2.2861,2.9496-4.6343,6.0184-13.7216,18.9572
			c5.0542,7.5217,11.9176,16.9718,15.4685,21.6061c0.2384,0.3007,0.3629,0.6013,0.3629,0.7828c0,0.3629-0.3058,0.4821-0.6065,0.4821
			H281.9062z M293.098,52.9913c-0.5391-0.057-2.3431-0.1763-4.09-0.1763c-0.6635,0-1.3841,0-1.9284,0.057h-0.3007
			c-0.4821,0-0.6584-0.1192-0.6584-0.6013c0-0.1192,0.057-0.2385,0.057-0.4199c0.1192-0.902,0.902-10.2899,0.902-19.4393
			c0-15.2871-0.7206-20.0406-0.959-21.3055c-0.0622-0.2385-0.0622-0.4821-0.0622-0.6583c0-0.3007,0.1192-0.4821,0.4821-0.4821
			h0.1192c0.8449,0.057,1.9284,0.1192,3.0118,0.1192c1.1404,0,2.2861-0.0622,3.3073-0.1192h0.3629
			c0.4821,0,0.6584,0.1192,0.6584,0.5391v0.2436c-0.902,6.9204-0.902,22.3267-0.902,23.5915c0,0.1763,0,9.8648,0.7257,17.6301
			v0.2436c0,0.5391-0.1815,0.7776-0.6013,0.7776H293.098z"/>
	</g>
</g>
<g>
</g>
<g>
</g>
<g>
</g>
<g>
</g>
<g>
</g>
<g>
</g>
<g>
</g>
<g>
</g>
<g>
</g>
<g>
</g>
<g>
</g>
<g>
</g>
<g>
</g>
<g>
</g>
<g>
</g>
</svg>
